<?xml version="1.0" encoding="UTF-8"?>
<svg xmlns="http://www.w3.org/2000/svg" id="Layer_1" data-name="Layer 1" viewBox="0 0 64 64" width="512" height="512"><path d="M62.93,46.055a3.713,3.713,0,0,0-.93-.648V42a3,3,0,0,0-3-3H58V36A25.929,25.929,0,0,0,39.061,11a4.98,4.98,0,0,0-4.883-4H29.822a4.98,4.98,0,0,0-4.884,4A25.918,25.918,0,0,0,6,36v3H5a3,3,0,0,0-3,3v3.409a3.767,3.767,0,0,0-.945.661A3.643,3.643,0,0,0,3.24,52.254l2.816.309a20.652,20.652,0,0,1,6.937,2.051A22.692,22.692,0,0,0,23.09,57H40.91a22.687,22.687,0,0,0,10.1-2.387,20.643,20.643,0,0,1,6.931-2.049l2.822-.31a3.643,3.643,0,0,0,2.169-6.2ZM59,41a1,1,0,0,1,1,1v3H58V41ZM4,42a1,1,0,0,1,1-1H6v4H4Zm56.541,8.266-2.825.311a22.659,22.659,0,0,0-7.6,2.248A20.676,20.676,0,0,1,40.91,55H23.09a20.681,20.681,0,0,1-9.2-2.174,22.668,22.668,0,0,0-7.61-2.25l-2.819-.31A1.638,1.638,0,0,1,3.64,47h8.638A1.993,1.993,0,0,0,14,48h5a2,2,0,0,0,2-2V41a2,2,0,0,0-2-2H14a2,2,0,0,0-2,2v4H8V36A23.923,23.923,0,0,1,24.765,13.14L24,29.955a1,1,0,0,0,2,.09l.826-18.181a3,3,0,0,1,3-2.864h4.356a3,3,0,0,1,3,2.863L38,30.045a1,1,0,0,0,2-.09l-.765-16.829A23.954,23.954,0,0,1,56,36v9H52V41a2,2,0,0,0-2-2H45a2,2,0,0,0-2,2v5a2,2,0,0,0,2,2h5a1.993,1.993,0,0,0,1.722-1H60.36A1.657,1.657,0,0,1,62,48.64,1.638,1.638,0,0,1,60.541,50.266ZM14,46V41h5v5Zm36,0H45V41h5l0,4.99Z"/><path d="M40,45H24a1,1,0,0,0,0,2H40a1,1,0,0,0,0-2Z"/></svg>
